<?xml version="1.0" encoding="UTF-8"?>
<svg id="Layer_2" data-name="Layer 2" xmlns="http://www.w3.org/2000/svg" viewBox="0 0 417.5 417.5">
  <defs>
    <style>
      .cls-1 {
        fill: #006d77;
      }

      .cls-2 {
        fill: #fff;
      }
    </style>
  </defs>
  <g id="Layer_1-2" data-name="Layer 1">
    <g>
      <rect class="cls-1" x="0" y="0" width="417.5" height="417.5" rx="208.75" ry="208.75"/>
      <path class="cls-2" d="M323.09,156.43c-10.12-46.29-43.69-75.48-87.75-76.11-22.47-.54-47.63,7.34-70.64,23.91-23.73-16.83-50.05-23.91-72.97-23.91v44.77c5.64,0,22.21.98,40.11,11.19-14.59,19.07-26.59,43.25-33.93,72.79-11.1,44.77-7.7,79.06,10.12,102.07,12.89,16.47,32.95,25.97,55.07,26.06h.27c20.95,0,40.11-8.86,52.65-24.35,18.27-22.47,22.56-57.22,12.71-103.06-6.63-30.44-17.73-54.62-31.52-73.42,12.53-7.7,25.43-11.37,37.52-11.28,23.1.36,38.95,14.86,44.68,40.92,11.4,51.81-33.58,171.2-33.58,171.2h47.01s44.72-114.63,30.26-180.78ZM181.27,284.64c-5.28,6.54-12.53,7.52-18,7.79-4.92,0-13.97-1.16-19.88-8.77-8.77-11.28-9.49-33.93-2.06-63.75,5.19-20.77,13.34-38.23,23.19-52.2,8.42,12.89,15.67,29.64,20.41,51.48,9.04,41.9,1.52,59-3.67,65.45Z"/>
    </g>
  </g>
</svg>