<?xml version="1.0" encoding="UTF-8"?>
<svg id="Layer_2" data-name="Layer 2" xmlns="http://www.w3.org/2000/svg" viewBox="0 0 752.8 167.62">
  <g id="Layer_1-2" data-name="Layer 1">
    <g>
      <path d="M0,4.7h137.55v58.25L3.46,135.32h134.09v27.97H0v-57.38L135.81,32.67H0V4.7Z"/>
      <path d="M150.49,34.97c3.36-7.35,8.18-13.62,14.45-18.81,6.27-5.19,13.88-9.18,22.82-11.97S206.72.01,217.82.01c11.77,0,22.32,1.58,31.65,4.72,9.32,3.15,17.23,7.68,23.72,13.59,6.49,5.91,11.46,13.13,14.92,21.66,3.46,8.53,5.19,18.2,5.19,29.02v94.29h-29.2v-43.54h.22c-1.25,4.95-2.96,9.56-5.12,13.84s-4.73,8.19-7.71,11.75c-2.98,3.56-6.36,6.72-10.13,9.48-3.77,2.76-7.88,5.09-12.33,6.99-4.45,1.9-9.22,3.34-14.31,4.33-5.09.98-10.45,1.48-16.08,1.48-8.7,0-16.6-1.14-23.72-3.42-7.11-2.28-13.2-5.53-18.27-9.73-5.07-4.21-8.99-9.25-11.75-15.14-2.76-5.89-4.15-12.44-4.15-19.64s1.43-13.79,4.29-19.61c2.86-5.81,6.97-10.75,12.33-14.81,5.36-4.06,11.86-7.17,19.5-9.34,7.64-2.16,16.27-3.24,25.88-3.24h62.43v24.51h-62.72c-5.38,0-10.12.46-14.2,1.37-4.09.91-7.51,2.28-10.27,4.11-2.76,1.83-4.85,4.09-6.27,6.78-1.42,2.69-2.13,5.79-2.13,9.3,0,3.75.8,7.09,2.42,10.02,1.61,2.93,3.98,5.38,7.1,7.35,3.12,1.97,6.98,3.47,11.57,4.51,4.59,1.03,9.86,1.55,15.82,1.55,5.62,0,10.94-.46,15.97-1.37,5.02-.91,9.66-2.24,13.95-3.89,31.8-12.22,27.68-25.29,27.68-35.32v-32.58c0-6.54-1.09-12.42-3.28-17.66-2.19-5.24-5.3-9.71-9.34-13.41-4.04-3.7-8.94-6.54-14.71-8.51-5.77-1.97-12.25-2.96-19.46-2.96s-13.71.79-19.07,2.38c-5.36,1.59-9.78,3.82-13.26,6.7-3.49,2.88-6.08,6.38-7.79,10.49-1.71,4.11-2.56,8.66-2.56,13.66h-29.2c0-9.13,1.68-17.37,5.05-24.73Z"/>
      <path d="M330.42,163.29h-29.2V4.34h29.2v51.54l-.22,3.07c1.13-9.23,4.41-18.23,7.89-24.63,3.48-6.39,7.81-11.81,12.98-16.26,5.17-4.45,11.16-7.85,17.99-10.2,6.82-2.35,14.47-3.53,22.92-3.53h7.21v27.83h-7.14c-11.63,0-21.39,1.07-29.27,3.21-7.88,2.14-14.21,5.37-19,9.7s-13.37,10.06-13.37,39.43v78.79Z"/>
      <path d="M401.07,4.7h32.87l47.29,156.29L528.81,4.7h32.87l-49.89,158.6h-60.84L401.07,4.7Z"/>
      <path d="M708.81,60.14c-1.76-7.42-4.3-14.22-7.62-20.42-3.32-6.2-7.35-11.76-12.1-16.68-4.75-4.92-10.15-9.1-16.18-12.51-6.04-3.41-12.64-6.02-19.8-7.82-7.16-1.8-14.82-2.71-22.97-2.71s-15.8.91-22.96,2.71c-7.17,1.8-13.76,4.41-19.8,7.82-6.03,3.41-11.42,7.59-16.17,12.51-4.76,4.92-8.79,10.48-12.11,16.68s-5.86,13-7.62,20.42c-1.76,7.39-2.64,15.27-2.64,23.63s.88,16.24,2.64,23.65c1.76,7.41,4.3,14.22,7.62,20.43,3.32,6.24,7.37,11.79,12.14,16.69,4.78,4.9,10.17,9.08,16.17,12.51,6.02,3.44,12.6,6.05,19.77,7.86,7.16,1.8,14.82,2.71,22.96,2.71s15.81-.91,22.97-2.71c7.16-1.81,13.75-4.42,19.76-7.86,6-3.43,11.4-7.61,16.17-12.51,4.79-4.9,8.83-10.45,12.15-16.69,3.32-6.21,5.86-13.02,7.62-20.43,1.75-7.41,2.63-15.28,2.63-23.65s-.88-16.24-2.63-23.63ZM674.4,112.74c-2.19,8.56-5.35,15.85-9.44,21.87-4.09,6.01-9.07,10.61-14.93,13.8-5.87,3.2-12.47,4.8-19.82,4.8s-13.95-1.61-19.84-4.84c-5.88-3.22-10.89-7.83-15.01-13.81-4.12-5.98-7.28-13.26-9.47-21.82-2.19-8.57-3.27-18.23-3.27-28.97s1.08-20.4,3.27-28.98c2.19-8.56,5.35-15.84,9.47-21.81,4.12-5.99,9.13-10.58,15.01-13.78,5.89-3.19,12.51-4.78,19.84-4.78s13.95,1.59,19.82,4.78c5.86,3.2,10.84,7.79,14.93,13.78,4.09,5.97,7.25,13.25,9.44,21.81,2.19,8.58,3.28,18.23,3.28,28.98s-1.09,20.4-3.28,28.97Z"/>
      <path d="M752.8,163.29h-36.77v-38.93h36.77v38.93Z"/>
    </g>
  </g>
</svg>