<?xml version="1.0" encoding="UTF-8"?>
<svg id="Layer_2" data-name="Layer 2" xmlns="http://www.w3.org/2000/svg" viewBox="0 0 473.92 72">
  <defs>
    <style>
      .cls-1 {
        fill: #e6fcf8;
      }
    </style>
  </defs>
  <g id="Layer_1-2" data-name="Layer 1">
    <g>
      <g>
        <path class="cls-1" d="M114.27,47h-43.49c.34,4.55,2.03,8.2,5.06,10.95,3.03,2.76,6.75,4.13,11.16,4.13,6.34,0,10.81-2.65,13.43-7.95h12.71c-1.72,5.24-4.84,9.52-9.35,12.86-4.51,3.34-10.11,5.01-16.79,5.01-5.44,0-10.31-1.22-14.62-3.67-4.3-2.44-7.68-5.89-10.12-10.33-2.45-4.44-3.67-9.59-3.67-15.44s1.19-11,3.56-15.44c2.38-4.44,5.72-7.87,10.02-10.28,4.3-2.41,9.25-3.62,14.82-3.62s10.16,1.17,14.36,3.51c4.2,2.34,7.47,5.63,9.81,9.87,2.34,4.23,3.51,9.11,3.51,14.62,0,2.14-.14,4.06-.41,5.78ZM102.39,37.5c-.07-4.34-1.62-7.82-4.65-10.43-3.03-2.62-6.78-3.93-11.26-3.93-4.06,0-7.54,1.29-10.43,3.87s-4.61,6.08-5.17,10.49h31.51Z"/>
        <path class="cls-1" d="M123.31,27.17c2.38-4.41,5.61-7.83,9.71-10.28,4.1-2.44,8.63-3.67,13.58-3.67,4.48,0,8.38.88,11.72,2.64,3.34,1.76,6.01,3.94,8.01,6.56v-8.26h11.88v56.92h-11.88v-8.47c-2,2.69-4.72,4.92-8.16,6.71-3.44,1.79-7.37,2.69-11.78,2.69-4.89,0-9.37-1.26-13.43-3.77-4.06-2.51-7.28-6.02-9.66-10.54s-3.56-9.62-3.56-15.34,1.19-10.78,3.56-15.18ZM163.91,32.33c-1.62-2.89-3.74-5.09-6.35-6.61-2.62-1.52-5.44-2.27-8.47-2.27s-5.85.74-8.47,2.22c-2.62,1.48-4.73,3.65-6.35,6.51-1.62,2.86-2.43,6.25-2.43,10.18s.81,7.37,2.43,10.33c1.62,2.96,3.75,5.22,6.41,6.77,2.65,1.55,5.46,2.32,8.42,2.32s5.85-.76,8.47-2.27c2.62-1.51,4.73-3.73,6.35-6.66,1.62-2.93,2.43-6.35,2.43-10.28s-.81-7.33-2.43-10.23Z"/>
        <path class="cls-1" d="M204.87,23.76v31.51c0,2.14.5,3.67,1.5,4.6,1,.93,2.7,1.4,5.11,1.4h7.23v9.81h-9.3c-5.3,0-9.37-1.24-12.19-3.72-2.83-2.48-4.24-6.51-4.24-12.09v-31.51h-6.71v-9.61h6.71V0h11.88v14.15h13.84v9.61h-13.84Z"/>
        <path class="cls-1" d="M51.32,31.05c-2.24-10.26-9.68-16.73-19.45-16.87-4.98-.12-10.56,1.63-15.66,5.3C10.96,15.75,5.12,14.18.04,14.18v9.92c1.25,0,4.92.22,8.89,2.48-3.23,4.23-5.89,9.58-7.52,16.13-2.46,9.92-1.71,17.52,2.24,22.62,2.86,3.65,7.3,5.75,12.2,5.77h.06c4.64,0,8.89-1.96,11.67-5.4,4.05-4.98,5-12.68,2.82-22.84-1.47-6.75-3.93-12.1-6.98-16.27,2.78-1.71,5.64-2.52,8.31-2.5,5.12.08,8.63,3.29,9.9,9.07,2.58,11.73-7.44,37.94-7.44,37.94h10.42s9.94-25.26,6.71-40.06ZM19.89,59.46c-1.17,1.45-2.78,1.67-3.99,1.73-1.09,0-3.1-.26-4.41-1.94-1.94-2.5-2.1-7.52-.46-14.13,1.15-4.6,2.96-8.47,5.14-11.57,1.87,2.86,3.47,6.57,4.52,11.41,2,9.29.34,13.08-.81,14.5Z"/>
      </g>
      <g>
        <path class="cls-1" d="M317.6,37.61v33.55h-8.12v-32.72c0-5.97-1.47-10.58-4.33-13.71-2.84-3.12-6.79-4.7-11.71-4.7s-9.29,1.73-12.34,5.12c-3.08,3.39-4.62,8.43-4.62,14.94v31.07h-8.12v-32.72c0-5.97-1.47-10.58-4.33-13.71-2.84-3.12-6.83-4.7-11.83-4.7s-9.29,1.73-12.32,5.12c-3.08,3.39-4.62,8.43-4.62,14.94v31.07h-8.23V13.78h8.23v8.33c1.75-2.8,4.07-5,6.91-6.57,3.35-1.87,7.16-2.8,11.29-2.8,4.96,0,9.37,1.21,13.12,3.59,3.43,2.16,6.03,5.32,7.74,9.35,1.59-3.97,4.13-7.08,7.54-9.31,3.75-2.4,8.06-3.63,12.82-3.63,6.71,0,12.28,2.14,16.51,6.39,2.12,2.12,3.73,4.74,4.8,7.82,1.07,3.1,1.61,6.65,1.61,10.66Z"/>
        <path class="cls-1" d="M376,13.78v10.81c-1.77-3.1-4.35-5.73-7.66-7.84-3.95-2.52-8.71-3.81-14.15-3.81s-10,1.23-14.15,3.63c-4.17,2.42-7.46,5.89-9.8,10.32-2.32,4.42-3.51,9.64-3.51,15.48s1.19,11.07,3.51,15.52c2.34,4.46,5.64,7.98,9.8,10.44,4.15,2.44,8.87,3.67,14.03,3.67,5.46,0,10.22-1.29,14.17-3.85,3.33-2.14,5.93-4.82,7.76-7.96v10.97h8.24V13.78h-8.24ZM355.52,64.72c-3.89,0-7.42-.91-10.5-2.68-3.06-1.77-5.52-4.39-7.28-7.76-1.79-3.39-2.68-7.38-2.68-11.91s.89-8.59,2.68-11.91c1.77-3.31,4.23-5.87,7.28-7.6,3.08-1.75,6.61-2.62,10.5-2.62s7.24.91,10.34,2.72c3.12,1.81,5.6,4.41,7.42,7.76,1.81,3.35,2.72,7.3,2.72,11.75s-.91,8.39-2.72,11.75c-1.81,3.35-4.31,5.95-7.42,7.76-3.1,1.81-6.59,2.74-10.34,2.74Z"/>
        <path class="cls-1" d="M424.71,12.75v8.53h-2.46c-5.08,0-9.21,1.39-12.26,4.11-3.04,2.72-4.58,7.34-4.58,13.79v31.99h-8.23V13.78h8.23v8.47c1.59-2.74,3.77-4.92,6.53-6.55,3.33-1.96,7.46-2.96,12.28-2.96h.5Z"/>
        <polygon class="cls-1" points="473.92 71.17 462.75 71.17 462.59 71.01 440.21 46.64 440.21 71.17 432 71.17 432 0 440.21 0 440.21 38.19 462.22 13.78 473.73 13.78 446.5 42.37 473.92 71.17"/>
      </g>
    </g>
  </g>
</svg>